{
	"patcher" : 	{
		"fileversion" : 1,
		"appversion" : 		{
			"major" : 6,
			"minor" : 0,
			"revision" : 7
		}
,
		"rect" : [ 745.0, 104.0, 180.0, 198.0 ],
		"bglocked" : 0,
		"openinpresentation" : 1,
		"default_fontsize" : 10.0,
		"default_fontface" : 0,
		"default_fontname" : "Courier New",
		"gridonopen" : 0,
		"gridsize" : [ 15.0, 15.0 ],
		"gridsnaponopen" : 0,
		"statusbarvisible" : 0,
		"toolbarvisible" : 0,
		"boxanimatetime" : 200,
		"imprint" : 0,
		"enablehscroll" : 0,
		"enablevscroll" : 0,
		"devicewidth" : 0.0,
		"description" : "",
		"digest" : "",
		"tags" : "",
		"globalpatchername" : "SPIN0",
		"boxes" : [ 			{
				"box" : 				{
					"fontname" : "Courier New",
					"fontsize" : 10.0,
					"id" : "obj-4",
					"maxclass" : "newobj",
					"numinlets" : 1,
					"numoutlets" : 4,
					"outlettype" : [ "", "", "", "" ],
					"patching_rect" : [ 180.0, 510.0, 65.0, 18.0 ],
					"restore" : 					{
						"node" : [ 0.388889, 0.277778, 0.266666, 1 ],
						"preset" : [ -1 ],
						"settings" : [ 0 ],
						"storagewindow" : [ 0 ],
						"textbutton" : [ 0 ]
					}
,
					"text" : "autopattr",
					"varname" : "u489004247"
				}

			}
, 			{
				"box" : 				{
					"fontname" : "Courier New",
					"fontsize" : 10.0,
					"id" : "obj-165",
					"maxclass" : "newobj",
					"numinlets" : 3,
					"numoutlets" : 3,
					"outlettype" : [ "bang", "bang", "" ],
					"patching_rect" : [ 205.333313, 901.5, 53.0, 18.0 ],
					"text" : "sel 1 0"
				}

			}
, 			{
				"box" : 				{
					"fontname" : "Courier New",
					"fontsize" : 10.0,
					"id" : "obj-164",
					"maxclass" : "newobj",
					"numinlets" : 3,
					"numoutlets" : 3,
					"outlettype" : [ "bang", "bang", "" ],
					"patching_rect" : [ 276.333374, 923.5, 53.0, 18.0 ],
					"text" : "sel 1 0"
				}

			}
, 			{
				"box" : 				{
					"fontname" : "Courier New",
					"fontsize" : 10.0,
					"id" : "obj-173",
					"maxclass" : "message",
					"numinlets" : 2,
					"numoutlets" : 1,
					"outlettype" : [ "" ],
					"patching_rect" : [ 349.604187, 793.0, 35.0, 16.0 ],
					"text" : "2000"
				}

			}
, 			{
				"box" : 				{
					"fontname" : "Courier New",
					"fontsize" : 10.0,
					"id" : "obj-171",
					"maxclass" : "newobj",
					"numinlets" : 1,
					"numoutlets" : 3,
					"outlettype" : [ "", "", "" ],
					"patching_rect" : [ 415.604187, 757.0, 155.0, 18.0 ],
					"saved_object_attributes" : 					{
						"initial" : [ 2000 ],
						"parameter_enable" : 0
					}
,
					"text" : "pattr interpolation-time",
					"varname" : "interpolation-time"
				}

			}
, 			{
				"box" : 				{
					"fontname" : "Courier New",
					"fontsize" : 10.0,
					"id" : "obj-162",
					"maxclass" : "message",
					"numinlets" : 2,
					"numoutlets" : 1,
					"outlettype" : [ "" ],
					"patching_rect" : [ 366.604187, 739.0, 32.5, 16.0 ],
					"text" : "0."
				}

			}
, 			{
				"box" : 				{
					"fontname" : "Courier New",
					"fontsize" : 10.0,
					"id" : "obj-150",
					"maxclass" : "newobj",
					"numinlets" : 2,
					"numoutlets" : 1,
					"outlettype" : [ "bang" ],
					"patching_rect" : [ 349.604187, 757.0, 47.0, 18.0 ],
					"text" : "del 16"
				}

			}
, 			{
				"box" : 				{
					"fontname" : "Courier New",
					"fontsize" : 10.0,
					"id" : "obj-211",
					"maxclass" : "newobj",
					"numinlets" : 1,
					"numoutlets" : 2,
					"outlettype" : [ "bang", "float" ],
					"patching_rect" : [ 349.604187, 852.0, 41.0, 18.0 ],
					"text" : "t b f"
				}

			}
, 			{
				"box" : 				{
					"fontname" : "Courier New",
					"fontsize" : 10.0,
					"id" : "obj-210",
					"maxclass" : "newobj",
					"numinlets" : 4,
					"numoutlets" : 1,
					"outlettype" : [ "" ],
					"patching_rect" : [ 255.4375, 879.0, 119.0, 18.0 ],
					"text" : "pack recall 1 2 0."
				}

			}
, 			{
				"box" : 				{
					"fontname" : "Courier New",
					"fontsize" : 10.0,
					"id" : "obj-205",
					"maxclass" : "message",
					"numinlets" : 2,
					"numoutlets" : 1,
					"outlettype" : [ "" ],
					"patching_rect" : [ 349.604187, 809.0, 59.0, 16.0 ],
					"text" : "1. $1 16"
				}

			}
, 			{
				"box" : 				{
					"fontname" : "Courier New",
					"fontsize" : 10.0,
					"id" : "obj-203",
					"maxclass" : "newobj",
					"numinlets" : 3,
					"numoutlets" : 2,
					"outlettype" : [ "", "" ],
					"patching_rect" : [ 349.604187, 834.0, 53.0, 18.0 ],
					"text" : "line 0."
				}

			}
, 			{
				"box" : 				{
					"fontname" : "Courier New",
					"fontsize" : 10.0,
					"id" : "obj-202",
					"maxclass" : "newobj",
					"numinlets" : 1,
					"numoutlets" : 3,
					"outlettype" : [ "int", "bang", "bang" ],
					"patching_rect" : [ 332.604187, 719.0, 53.0, 18.0 ],
					"text" : "t i b b"
				}

			}
, 			{
				"box" : 				{
					"fontname" : "Courier New",
					"fontsize" : 10.0,
					"id" : "obj-180",
					"maxclass" : "newobj",
					"numinlets" : 1,
					"numoutlets" : 1,
					"outlettype" : [ "" ],
					"patching_rect" : [ 255.4375, 793.0, 47.0, 18.0 ],
					"text" : "bucket"
				}

			}
, 			{
				"box" : 				{
					"fontname" : "Courier New",
					"fontsize" : 10.0,
					"id" : "obj-177",
					"maxclass" : "message",
					"numinlets" : 2,
					"numoutlets" : 1,
					"outlettype" : [ "" ],
					"patching_rect" : [ 184.0, 719.0, 59.0, 16.0 ],
					"text" : "store $1"
				}

			}
, 			{
				"box" : 				{
					"fontname" : "Courier New",
					"fontsize" : 10.0,
					"id" : "obj-175",
					"maxclass" : "newobj",
					"numinlets" : 2,
					"numoutlets" : 1,
					"outlettype" : [ "" ],
					"patching_rect" : [ 255.4375, 701.0, 35.0, 18.0 ],
					"text" : "gate"
				}

			}
, 			{
				"box" : 				{
					"fontname" : "Courier New",
					"fontsize" : 10.0,
					"id" : "obj-174",
					"maxclass" : "newobj",
					"numinlets" : 2,
					"numoutlets" : 1,
					"outlettype" : [ "int" ],
					"patching_rect" : [ 255.4375, 683.0, 32.5, 18.0 ],
					"text" : "- 1"
				}

			}
, 			{
				"box" : 				{
					"fontname" : "Courier New",
					"fontsize" : 10.0,
					"id" : "obj-170",
					"maxclass" : "newobj",
					"numinlets" : 2,
					"numoutlets" : 1,
					"outlettype" : [ "" ],
					"patching_rect" : [ 184.0, 701.0, 35.0, 18.0 ],
					"text" : "gate"
				}

			}
, 			{
				"box" : 				{
					"fontname" : "Courier New",
					"fontsize" : 10.0,
					"id" : "obj-169",
					"maxclass" : "message",
					"numinlets" : 2,
					"numoutlets" : 1,
					"outlettype" : [ "" ],
					"patching_rect" : [ 75.0, 603.0, 71.0, 16.0 ],
					"text" : "interval 0"
				}

			}
, 			{
				"box" : 				{
					"fontname" : "Courier New",
					"fontsize" : 10.0,
					"id" : "obj-168",
					"maxclass" : "message",
					"numinlets" : 2,
					"numoutlets" : 1,
					"outlettype" : [ "" ],
					"patching_rect" : [ 116.0, 581.0, 77.0, 16.0 ],
					"text" : "interval 20"
				}

			}
, 			{
				"box" : 				{
					"fontname" : "Courier New",
					"fontsize" : 10.0,
					"id" : "obj-166",
					"maxclass" : "newobj",
					"numinlets" : 3,
					"numoutlets" : 3,
					"outlettype" : [ "bang", "bang", "" ],
					"patching_rect" : [ 90.0, 558.0, 71.0, 18.0 ],
					"text" : "select 0 1"
				}

			}
, 			{
				"box" : 				{
					"fontname" : "Courier New",
					"fontsize" : 10.0,
					"id" : "obj-163",
					"maxclass" : "newobj",
					"numinlets" : 1,
					"numoutlets" : 5,
					"outlettype" : [ "int", "int", "int", "int", "int" ],
					"patching_rect" : [ 116.0, 630.0, 73.0, 18.0 ],
					"text" : "modifiers"
				}

			}
, 			{
				"box" : 				{
					"fontname" : "Courier New",
					"fontsize" : 10.0,
					"id" : "obj-149",
					"maxclass" : "newobj",
					"numinlets" : 0,
					"numoutlets" : 1,
					"outlettype" : [ "int" ],
					"patching_rect" : [ 90.0, 540.0, 47.0, 18.0 ],
					"text" : "active"
				}

			}
, 			{
				"box" : 				{
					"activesafe" : 0,
					"annotation" : "Click or press key to recall stored preset, Shift-click or press to save new preset",
					"bordercolor" : [ 0.0, 0.0, 0.0, 1.0 ],
					"borderoncolor" : [ 0.0, 0.0, 0.0, 1.0 ],
					"fontname" : "Courier New",
					"fontsize" : 10.0,
					"hint" : "",
					"hovertabcolor" : [ 0.74902, 0.74902, 0.74902, 1.0 ],
					"hovertextcolor" : [ 0.0, 0.0, 0.0, 1.0 ],
					"htabcolor" : [ 0.74902, 0.74902, 0.74902, 0.8 ],
					"htextcolor" : [ 0.0, 0.0, 0.0, 1.0 ],
					"id" : "obj-78",
					"margin" : 0,
					"maxclass" : "tab",
					"mode" : 1,
					"multiline" : 0,
					"numinlets" : 1,
					"numoutlets" : 3,
					"outlettype" : [ "int", "", "" ],
					"parameter_enable" : 1,
					"patching_rect" : [ 215.0, 625.0, 282.0, 33.0 ],
					"presentation" : 1,
					"presentation_rect" : [ 0.0, 185.0, 162.04718, 13.0 ],
					"rounded" : 0.0,
					"saved_attribute_attributes" : 					{
						"valueof" : 						{
							"parameter_longname" : "tab",
							"parameter_initial" : [ 0 ],
							"parameter_type" : 3,
							"parameter_invisible" : 1,
							"parameter_shortname" : "tab",
							"parameter_annotation_name" : "Preset"
						}

					}
,
					"spacing_x" : 1.0,
					"spacing_y" : 1.0,
					"tabcolor" : [ 0.0, 0.0, 0.0, 1.0 ],
					"tabs" : [ "1", "2", "3", "4", "5", "6", "7", "8", "9", "0" ],
					"textcolor" : [ 1.0, 1.0, 1.0, 1.0 ],
					"varname" : "preset"
				}

			}
, 			{
				"box" : 				{
					"annotation" : "Open preset storage window showing all saved presets",
					"bgcolor" : [ 0.0, 0.0, 0.0, 1.0 ],
					"bgoncolor" : [ 1.0, 1.0, 1.0, 1.0 ],
					"bgovercolor" : [ 0.74902, 0.74902, 0.74902, 1.0 ],
					"border" : 0,
					"bordercolor" : [ 0.6, 0.6, 0.6, 0.0 ],
					"borderoncolor" : [ 0.4, 0.4, 0.4, 0.0 ],
					"fontname" : "Courier New",
					"fontsize" : 10.0,
					"hint" : "",
					"id" : "obj-8",
					"maxclass" : "textbutton",
					"mode" : 1,
					"numinlets" : 1,
					"numoutlets" : 3,
					"outlettype" : [ "", "", "int" ],
					"parameter_enable" : 1,
					"patching_rect" : [ 211.041687, 852.0, 15.583313, 18.0 ],
					"presentation" : 1,
					"presentation_rect" : [ 162.04718, 185.0, 17.95282, 13.0 ],
					"rounded" : 0.0,
					"saved_attribute_attributes" : 					{
						"valueof" : 						{
							"parameter_longname" : "storagewindow",
							"parameter_type" : 3,
							"parameter_invisible" : 1,
							"parameter_shortname" : "storagewindow",
							"parameter_annotation_name" : "Storage"
						}

					}
,
					"text" : "-",
					"textcolor" : [ 1.0, 1.0, 1.0, 1.0 ],
					"texton" : "-",
					"textoncolor" : [ 0.0, 0.0, 0.0, 1.0 ],
					"textovercolor" : [ 1.0, 1.0, 1.0, 1.0 ],
					"varname" : "storagewindow"
				}

			}
, 			{
				"box" : 				{
					"fontname" : "Courier New",
					"fontsize" : 10.0,
					"id" : "obj-33",
					"maxclass" : "newobj",
					"numinlets" : 1,
					"numoutlets" : 1,
					"outlettype" : [ "" ],
					"patching_rect" : [ 205.333374, 975.5, 191.0, 18.0 ],
					"saved_object_attributes" : 					{
						"client_rect" : [ 169, 666, 856, 914 ],
						"parameter_enable" : 0,
						"storage_rect" : [ 479, 72, 1095, 366 ]
					}
,
					"text" : "pattrstorage SPIN0 @savemode 0",
					"varname" : "SPIN0"
				}

			}
, 			{
				"box" : 				{
					"fontname" : "Courier New",
					"fontsize" : 10.0,
					"id" : "obj-32",
					"maxclass" : "newobj",
					"numinlets" : 1,
					"numoutlets" : 1,
					"outlettype" : [ "" ],
					"patching_rect" : [ 205.333374, 1012.5, 113.0, 18.0 ],
					"text" : "pattrmarker SPIN0"
				}

			}
, 			{
				"box" : 				{
					"fontname" : "Courier New",
					"fontsize" : 10.0,
					"id" : "obj-136",
					"maxclass" : "message",
					"numinlets" : 2,
					"numoutlets" : 1,
					"outlettype" : [ "" ],
					"patching_rect" : [ 375.4375, 945.5, 83.0, 16.0 ],
					"text" : "clientwindow"
				}

			}
, 			{
				"box" : 				{
					"fontname" : "Courier New",
					"fontsize" : 10.0,
					"id" : "obj-147",
					"maxclass" : "message",
					"numinlets" : 2,
					"numoutlets" : 1,
					"outlettype" : [ "" ],
					"patching_rect" : [ 205.333374, 945.5, 89.0, 16.0 ],
					"text" : "storagewindow"
				}

			}
, 			{
				"box" : 				{
					"fontname" : "Courier New",
					"fontsize" : 10.0,
					"id" : "obj-161",
					"maxclass" : "message",
					"numinlets" : 2,
					"numoutlets" : 1,
					"outlettype" : [ "" ],
					"patching_rect" : [ 297.9375, 945.5, 82.0, 16.0 ],
					"text" : "client_close"
				}

			}
, 			{
				"box" : 				{
					"fontname" : "Courier New",
					"fontsize" : 10.0,
					"id" : "obj-167",
					"maxclass" : "message",
					"numinlets" : 2,
					"numoutlets" : 1,
					"outlettype" : [ "" ],
					"patching_rect" : [ 95.104187, 945.5, 88.0, 16.0 ],
					"text" : "storage_close"
				}

			}
, 			{
				"box" : 				{
					"fontface" : 1,
					"fontname" : "Courier New",
					"fontsize" : 20.0,
					"frgb" : 0.0,
					"id" : "obj-188",
					"maxclass" : "comment",
					"numinlets" : 1,
					"numoutlets" : 0,
					"patching_rect" : [ 30.0, 90.0, 141.129196, 29.0 ],
					"text" : "PATCHER"
				}

			}
, 			{
				"box" : 				{
					"fontname" : "Courier New",
					"fontsize" : 10.0,
					"id" : "obj-23",
					"maxclass" : "message",
					"numinlets" : 2,
					"numoutlets" : 1,
					"outlettype" : [ "" ],
					"patching_rect" : [ 30.0, 227.5, 47.0, 16.0 ],
					"text" : "wclose"
				}

			}
, 			{
				"box" : 				{
					"annotation" : "Stop rendering and close associated window",
					"bgcolor" : [ 0.0, 0.0, 0.0, 1.0 ],
					"bgoncolor" : [ 0.909804, 0.0, 0.0, 1.0 ],
					"bgovercolor" : [ 0.74902, 0.0, 0.0, 1.0 ],
					"border" : 0,
					"bordercolor" : [ 0.6, 0.6, 0.6, 0.0 ],
					"borderoncolor" : [ 0.4, 0.4, 0.4, 0.0 ],
					"fontname" : "Courier New",
					"fontsize" : 10.0,
					"hint" : "",
					"id" : "obj-65",
					"maxclass" : "textbutton",
					"mode" : 1,
					"numinlets" : 1,
					"numoutlets" : 3,
					"outlettype" : [ "", "", "int" ],
					"parameter_enable" : 1,
					"patching_rect" : [ 35.708344, 209.5, 15.583313, 18.0 ],
					"presentation" : 1,
					"presentation_rect" : [ 162.04718, 0.0, 17.95282, 15.0 ],
					"rounded" : 0.0,
					"saved_attribute_attributes" : 					{
						"valueof" : 						{
							"parameter_longname" : "close",
							"parameter_initial" : [ 0 ],
							"parameter_type" : 3,
							"parameter_invisible" : 1,
							"parameter_shortname" : "close",
							"parameter_annotation_name" : "Close"
						}

					}
,
					"text" : "X",
					"textcolor" : [ 1.0, 1.0, 1.0, 1.0 ],
					"textovercolor" : [ 1.0, 1.0, 1.0, 1.0 ],
					"varname" : "textbutton"
				}

			}
, 			{
				"box" : 				{
					"fontname" : "Courier New",
					"fontsize" : 10.0,
					"id" : "obj-75",
					"maxclass" : "newobj",
					"numinlets" : 2,
					"numoutlets" : 2,
					"outlettype" : [ "", "" ],
					"patching_rect" : [ 30.0, 288.5, 71.0, 18.0 ],
					"text" : "route size"
				}

			}
, 			{
				"box" : 				{
					"fontname" : "Courier New",
					"fontsize" : 10.0,
					"id" : "obj-74",
					"maxclass" : "newobj",
					"numinlets" : 2,
					"numoutlets" : 2,
					"outlettype" : [ "", "" ],
					"patching_rect" : [ 30.0, 270.0, 83.0, 18.0 ],
					"text" : "route window"
				}

			}
, 			{
				"box" : 				{
					"fontname" : "Courier New",
					"fontsize" : 10.0,
					"id" : "obj-72",
					"maxclass" : "newobj",
					"numinlets" : 0,
					"numoutlets" : 1,
					"outlettype" : [ "" ],
					"patching_rect" : [ 30.0, 164.0, 107.0, 18.0 ],
					"text" : "r ---previewbang"
				}

			}
, 			{
				"box" : 				{
					"fontname" : "Courier New",
					"fontsize" : 10.0,
					"id" : "obj-71",
					"maxclass" : "newobj",
					"numinlets" : 1,
					"numoutlets" : 3,
					"outlettype" : [ "", "", "" ],
					"patching_rect" : [ 30.0, 310.0, 143.0, 18.0 ],
					"saved_attribute_attributes" : 					{
						"valueof" : 						{
							"parameter_initial" : [ 1392, 853, 1680, 1050 ],
							"parameter_initial_enable" : 1,
							"parameter_invisible" : 1,
							"parameter_longname" : "patcher-window",
							"parameter_shortname" : "patcher-window",
							"parameter_type" : 3
						}

					}
,
					"saved_object_attributes" : 					{
						"annotation_name" : "",
						"initial" : [ 1392, 853, 1680, 1050 ],
						"parameter_enable" : 1
					}
,
					"text" : "pattr patcher-location",
					"varname" : "patcher-location"
				}

			}
, 			{
				"box" : 				{
					"fontname" : "Courier New",
					"fontsize" : 10.0,
					"id" : "obj-67",
					"maxclass" : "message",
					"numinlets" : 2,
					"numoutlets" : 1,
					"outlettype" : [ "" ],
					"patching_rect" : [ 30.0, 182.0, 95.0, 16.0 ],
					"text" : "window getsize"
				}

			}
, 			{
				"box" : 				{
					"fontname" : "Courier New",
					"fontsize" : 10.0,
					"id" : "obj-58",
					"linecount" : 3,
					"maxclass" : "message",
					"numinlets" : 2,
					"numoutlets" : 1,
					"outlettype" : [ "" ],
					"patching_rect" : [ 30.0, 35.0, 287.0, 38.0 ],
					"text" : "window flags title, window flags grow, window flags nofloat, window flags scroll, window exec"
				}

			}
, 			{
				"box" : 				{
					"fontname" : "Courier New",
					"fontsize" : 10.0,
					"id" : "obj-63",
					"maxclass" : "newobj",
					"numinlets" : 1,
					"numoutlets" : 1,
					"outlettype" : [ "bang" ],
					"patching_rect" : [ 30.0, 122.0, 59.0, 18.0 ],
					"text" : "loadbang"
				}

			}
, 			{
				"box" : 				{
					"fontname" : "Courier New",
					"fontsize" : 10.0,
					"id" : "obj-62",
					"linecount" : 3,
					"maxclass" : "message",
					"numinlets" : 2,
					"numoutlets" : 1,
					"outlettype" : [ "" ],
					"patching_rect" : [ 30.0, 144.0, 281.0, 38.0 ],
					"text" : "window flags notitle, window flags noscroll, window flags float, window flags nogrow, window exec"
				}

			}
, 			{
				"box" : 				{
					"fontname" : "Courier New",
					"fontsize" : 10.0,
					"id" : "obj-56",
					"maxclass" : "newobj",
					"numinlets" : 1,
					"numoutlets" : 2,
					"outlettype" : [ "", "" ],
					"patching_rect" : [ 30.0, 249.0, 77.0, 18.0 ],
					"save" : [ "#N", "thispatcher", ";", "#Q", "end", ";" ],
					"text" : "thispatcher"
				}

			}
, 			{
				"box" : 				{
					"fontname" : "Courier New",
					"fontsize" : 10.0,
					"id" : "obj-181",
					"maxclass" : "message",
					"numinlets" : 2,
					"numoutlets" : 1,
					"outlettype" : [ "" ],
					"patching_rect" : [ 30.0, 80.0, 83.0, 16.0 ],
					"text" : "savewindow 0"
				}

			}
, 			{
				"box" : 				{
					"annotation" : "Current module values and settings, including preset interpolation",
					"bgcolor" : [ 0.0, 0.0, 0.0, 1.0 ],
					"bgoncolor" : [ 1.0, 1.0, 1.0, 1.0 ],
					"bgovercolor" : [ 0.74902, 0.74902, 0.74902, 1.0 ],
					"border" : 0,
					"bordercolor" : [ 0.6, 0.6, 0.6, 0.0 ],
					"borderoncolor" : [ 0.4, 0.4, 0.4, 0.0 ],
					"fontname" : "Courier New",
					"fontsize" : 10.0,
					"hint" : "",
					"id" : "obj-80",
					"maxclass" : "textbutton",
					"mode" : 1,
					"numinlets" : 1,
					"numoutlets" : 3,
					"outlettype" : [ "", "", "int" ],
					"parameter_enable" : 1,
					"patching_rect" : [ 421.729187, 847.5, 100.0, 20.0 ],
					"presentation" : 1,
					"presentation_rect" : [ 67.5, 0.0, 45.0, 16.5 ],
					"rounded" : 0.0,
					"saved_attribute_attributes" : 					{
						"valueof" : 						{
							"parameter_longname" : "settings",
							"parameter_type" : 3,
							"parameter_invisible" : 1,
							"parameter_shortname" : "settings",
							"parameter_annotation_name" : "Settings"
						}

					}
,
					"text" : "SPIN",
					"textcolor" : [ 1.0, 1.0, 1.0, 1.0 ],
					"texton" : "SPIN",
					"textoncolor" : [ 0.0, 0.0, 0.0, 1.0 ],
					"textovercolor" : [ 1.0, 1.0, 1.0, 1.0 ],
					"varname" : "settings"
				}

			}
, 			{
				"box" : 				{
					"fontname" : "Courier New",
					"fontsize" : 10.0,
					"id" : "obj-17",
					"maxclass" : "message",
					"numinlets" : 2,
					"numoutlets" : 1,
					"outlettype" : [ "" ],
					"patching_rect" : [ 240.0, 480.0, 89.0, 16.0 ],
					"text" : "turn $1 $2 $3"
				}

			}
, 			{
				"box" : 				{
					"fontname" : "Courier New",
					"fontsize" : 10.0,
					"id" : "obj-10",
					"maxclass" : "newobj",
					"numinlets" : 6,
					"numoutlets" : 1,
					"outlettype" : [ "" ],
					"patching_rect" : [ 240.0, 450.0, 131.0, 18.0 ],
					"text" : "scale 0. 1. -10. 10."
				}

			}
, 			{
				"box" : 				{
					"fontname" : "Courier New",
					"fontsize" : 10.0,
					"id" : "obj-9",
					"maxclass" : "message",
					"numinlets" : 2,
					"numoutlets" : 1,
					"outlettype" : [ "" ],
					"patching_rect" : [ 240.0, 420.0, 59.0, 16.0 ],
					"text" : "$1 $2 $3"
				}

			}
, 			{
				"box" : 				{
					"fontname" : "Courier New",
					"fontsize" : 10.0,
					"id" : "obj-7",
					"maxclass" : "newobj",
					"numinlets" : 2,
					"numoutlets" : 2,
					"outlettype" : [ "", "" ],
					"patching_rect" : [ 240.0, 390.0, 53.0, 18.0 ],
					"text" : "route 1"
				}

			}
, 			{
				"box" : 				{
					"fontname" : "Courier New",
					"fontsize" : 10.0,
					"id" : "obj-6",
					"maxclass" : "newobj",
					"numinlets" : 2,
					"numoutlets" : 2,
					"outlettype" : [ "", "" ],
					"patching_rect" : [ 240.0, 360.0, 71.0, 18.0 ],
					"text" : "route node"
				}

			}
, 			{
				"box" : 				{
					"annotation" : "Rotation amount, use ALT for Z direction",
					"bgcolor" : [ 0.0, 0.0, 0.0, 1.0 ],
					"bordercolor" : [ 0.4, 0.4, 0.4, 0.0 ],
					"fontname" : "Courier New",
					"id" : "obj-3",
					"maxclass" : "nodes",
					"nodecolor" : [ 1.0, 1.0, 1.0, 0.4 ],
					"nsize" : [ 0.266666 ],
					"numinlets" : 1,
					"numoutlets" : 3,
					"outlettype" : [ "", "", "" ],
					"parameter_enable" : 0,
					"patching_rect" : [ 240.0, 255.0, 100.0, 100.0 ],
					"presentation" : 1,
					"presentation_rect" : [ 0.0, 15.0, 180.0, 167.0 ],
					"textcolor" : [ 0.101961, 0.101961, 0.101961, 0.0 ],
					"varname" : "node",
					"xplace" : [ 0.388889 ],
					"yplace" : [ 0.277778 ]
				}

			}
, 			{
				"box" : 				{
					"fontname" : "Courier New",
					"fontsize" : 10.0,
					"id" : "obj-1",
					"maxclass" : "newobj",
					"numinlets" : 1,
					"numoutlets" : 2,
					"outlettype" : [ "", "" ],
					"patching_rect" : [ 240.0, 525.0, 299.0, 18.0 ],
					"text" : "jit.anim.drive @targetname ANIM0 @drawto WINDOW0"
				}

			}
, 			{
				"box" : 				{
					"bgcolor" : [ 0.0, 0.0, 0.0, 1.0 ],
					"bordercolor" : [ 0.0, 0.0, 0.0, 0.0 ],
					"drag_window" : 1,
					"id" : "obj-20",
					"ignoreclick" : 0,
					"maxclass" : "panel",
					"numinlets" : 1,
					"numoutlets" : 0,
					"patching_rect" : [ 495.0, 200.0, 128.0, 128.0 ],
					"presentation" : 1,
					"presentation_rect" : [ 0.0, 0.0, 180.0, 198.0 ],
					"rounded" : 0
				}

			}
 ],
		"lines" : [ 			{
				"patchline" : 				{
					"destination" : [ "obj-17", 0 ],
					"disabled" : 0,
					"hidden" : 0,
					"source" : [ "obj-10", 0 ]
				}

			}
, 			{
				"patchline" : 				{
					"destination" : [ "obj-33", 0 ],
					"disabled" : 0,
					"hidden" : 0,
					"source" : [ "obj-136", 0 ]
				}

			}
, 			{
				"patchline" : 				{
					"destination" : [ "obj-33", 0 ],
					"disabled" : 0,
					"hidden" : 0,
					"source" : [ "obj-147", 0 ]
				}

			}
, 			{
				"patchline" : 				{
					"destination" : [ "obj-166", 0 ],
					"disabled" : 0,
					"hidden" : 0,
					"source" : [ "obj-149", 0 ]
				}

			}
, 			{
				"patchline" : 				{
					"destination" : [ "obj-173", 0 ],
					"disabled" : 0,
					"hidden" : 0,
					"source" : [ "obj-150", 0 ]
				}

			}
, 			{
				"patchline" : 				{
					"destination" : [ "obj-33", 0 ],
					"disabled" : 0,
					"hidden" : 0,
					"source" : [ "obj-161", 0 ]
				}

			}
, 			{
				"patchline" : 				{
					"destination" : [ "obj-203", 0 ],
					"disabled" : 0,
					"hidden" : 0,
					"source" : [ "obj-162", 0 ]
				}

			}
, 			{
				"patchline" : 				{
					"destination" : [ "obj-170", 0 ],
					"disabled" : 0,
					"hidden" : 0,
					"source" : [ "obj-163", 0 ]
				}

			}
, 			{
				"patchline" : 				{
					"destination" : [ "obj-174", 0 ],
					"disabled" : 0,
					"hidden" : 0,
					"source" : [ "obj-163", 0 ]
				}

			}
, 			{
				"patchline" : 				{
					"destination" : [ "obj-136", 0 ],
					"disabled" : 0,
					"hidden" : 0,
					"source" : [ "obj-164", 0 ]
				}

			}
, 			{
				"patchline" : 				{
					"destination" : [ "obj-161", 0 ],
					"disabled" : 0,
					"hidden" : 0,
					"source" : [ "obj-164", 1 ]
				}

			}
, 			{
				"patchline" : 				{
					"destination" : [ "obj-147", 0 ],
					"disabled" : 0,
					"hidden" : 0,
					"source" : [ "obj-165", 0 ]
				}

			}
, 			{
				"patchline" : 				{
					"destination" : [ "obj-167", 0 ],
					"disabled" : 0,
					"hidden" : 0,
					"source" : [ "obj-165", 1 ]
				}

			}
, 			{
				"patchline" : 				{
					"destination" : [ "obj-168", 0 ],
					"disabled" : 0,
					"hidden" : 0,
					"source" : [ "obj-166", 1 ]
				}

			}
, 			{
				"patchline" : 				{
					"destination" : [ "obj-169", 0 ],
					"disabled" : 0,
					"hidden" : 0,
					"source" : [ "obj-166", 0 ]
				}

			}
, 			{
				"patchline" : 				{
					"destination" : [ "obj-33", 0 ],
					"disabled" : 0,
					"hidden" : 0,
					"source" : [ "obj-167", 0 ]
				}

			}
, 			{
				"patchline" : 				{
					"destination" : [ "obj-163", 0 ],
					"disabled" : 0,
					"hidden" : 0,
					"source" : [ "obj-168", 0 ]
				}

			}
, 			{
				"patchline" : 				{
					"destination" : [ "obj-163", 0 ],
					"disabled" : 0,
					"hidden" : 0,
					"source" : [ "obj-169", 0 ]
				}

			}
, 			{
				"patchline" : 				{
					"destination" : [ "obj-1", 0 ],
					"disabled" : 0,
					"hidden" : 0,
					"source" : [ "obj-17", 0 ]
				}

			}
, 			{
				"patchline" : 				{
					"destination" : [ "obj-177", 0 ],
					"disabled" : 0,
					"hidden" : 0,
					"source" : [ "obj-170", 0 ]
				}

			}
, 			{
				"patchline" : 				{
					"destination" : [ "obj-173", 1 ],
					"disabled" : 0,
					"hidden" : 0,
					"source" : [ "obj-171", 0 ]
				}

			}
, 			{
				"patchline" : 				{
					"destination" : [ "obj-205", 0 ],
					"disabled" : 0,
					"hidden" : 0,
					"source" : [ "obj-173", 0 ]
				}

			}
, 			{
				"patchline" : 				{
					"destination" : [ "obj-175", 0 ],
					"disabled" : 0,
					"hidden" : 0,
					"source" : [ "obj-174", 0 ]
				}

			}
, 			{
				"patchline" : 				{
					"destination" : [ "obj-202", 0 ],
					"disabled" : 0,
					"hidden" : 0,
					"source" : [ "obj-175", 0 ]
				}

			}
, 			{
				"patchline" : 				{
					"destination" : [ "obj-33", 0 ],
					"disabled" : 0,
					"hidden" : 0,
					"source" : [ "obj-177", 0 ]
				}

			}
, 			{
				"patchline" : 				{
					"destination" : [ "obj-210", 1 ],
					"disabled" : 0,
					"hidden" : 0,
					"source" : [ "obj-180", 0 ]
				}

			}
, 			{
				"patchline" : 				{
					"destination" : [ "obj-56", 0 ],
					"disabled" : 0,
					"hidden" : 0,
					"source" : [ "obj-181", 0 ]
				}

			}
, 			{
				"patchline" : 				{
					"destination" : [ "obj-150", 0 ],
					"disabled" : 0,
					"hidden" : 0,
					"source" : [ "obj-202", 1 ]
				}

			}
, 			{
				"patchline" : 				{
					"destination" : [ "obj-162", 0 ],
					"disabled" : 0,
					"hidden" : 0,
					"source" : [ "obj-202", 2 ]
				}

			}
, 			{
				"patchline" : 				{
					"destination" : [ "obj-210", 2 ],
					"disabled" : 0,
					"hidden" : 0,
					"source" : [ "obj-202", 0 ]
				}

			}
, 			{
				"patchline" : 				{
					"destination" : [ "obj-211", 0 ],
					"disabled" : 0,
					"hidden" : 0,
					"source" : [ "obj-203", 0 ]
				}

			}
, 			{
				"patchline" : 				{
					"destination" : [ "obj-203", 0 ],
					"disabled" : 0,
					"hidden" : 0,
					"source" : [ "obj-205", 0 ]
				}

			}
, 			{
				"patchline" : 				{
					"destination" : [ "obj-33", 0 ],
					"disabled" : 0,
					"hidden" : 0,
					"source" : [ "obj-210", 0 ]
				}

			}
, 			{
				"patchline" : 				{
					"destination" : [ "obj-210", 3 ],
					"disabled" : 0,
					"hidden" : 0,
					"source" : [ "obj-211", 1 ]
				}

			}
, 			{
				"patchline" : 				{
					"destination" : [ "obj-210", 0 ],
					"disabled" : 0,
					"hidden" : 0,
					"source" : [ "obj-211", 0 ]
				}

			}
, 			{
				"patchline" : 				{
					"destination" : [ "obj-56", 0 ],
					"disabled" : 0,
					"hidden" : 0,
					"source" : [ "obj-23", 0 ]
				}

			}
, 			{
				"patchline" : 				{
					"destination" : [ "obj-6", 0 ],
					"disabled" : 0,
					"hidden" : 0,
					"source" : [ "obj-3", 1 ]
				}

			}
, 			{
				"patchline" : 				{
					"destination" : [ "obj-74", 0 ],
					"disabled" : 0,
					"hidden" : 0,
					"source" : [ "obj-56", 0 ]
				}

			}
, 			{
				"patchline" : 				{
					"destination" : [ "obj-56", 0 ],
					"disabled" : 0,
					"hidden" : 0,
					"source" : [ "obj-58", 0 ]
				}

			}
, 			{
				"patchline" : 				{
					"destination" : [ "obj-7", 0 ],
					"disabled" : 0,
					"hidden" : 0,
					"source" : [ "obj-6", 0 ]
				}

			}
, 			{
				"patchline" : 				{
					"destination" : [ "obj-56", 0 ],
					"disabled" : 0,
					"hidden" : 0,
					"source" : [ "obj-62", 0 ]
				}

			}
, 			{
				"patchline" : 				{
					"destination" : [ "obj-62", 0 ],
					"disabled" : 0,
					"hidden" : 0,
					"source" : [ "obj-63", 0 ]
				}

			}
, 			{
				"patchline" : 				{
					"destination" : [ "obj-23", 0 ],
					"disabled" : 0,
					"hidden" : 0,
					"source" : [ "obj-65", 0 ]
				}

			}
, 			{
				"patchline" : 				{
					"destination" : [ "obj-56", 0 ],
					"disabled" : 0,
					"hidden" : 0,
					"source" : [ "obj-67", 0 ]
				}

			}
, 			{
				"patchline" : 				{
					"destination" : [ "obj-9", 0 ],
					"disabled" : 0,
					"hidden" : 0,
					"source" : [ "obj-7", 0 ]
				}

			}
, 			{
				"patchline" : 				{
					"destination" : [ "obj-67", 0 ],
					"disabled" : 0,
					"hidden" : 0,
					"source" : [ "obj-72", 0 ]
				}

			}
, 			{
				"patchline" : 				{
					"destination" : [ "obj-75", 0 ],
					"disabled" : 0,
					"hidden" : 0,
					"source" : [ "obj-74", 0 ]
				}

			}
, 			{
				"patchline" : 				{
					"destination" : [ "obj-71", 0 ],
					"disabled" : 0,
					"hidden" : 0,
					"source" : [ "obj-75", 0 ]
				}

			}
, 			{
				"patchline" : 				{
					"destination" : [ "obj-170", 1 ],
					"disabled" : 0,
					"hidden" : 0,
					"source" : [ "obj-78", 0 ]
				}

			}
, 			{
				"patchline" : 				{
					"destination" : [ "obj-175", 1 ],
					"disabled" : 0,
					"hidden" : 0,
					"source" : [ "obj-78", 0 ]
				}

			}
, 			{
				"patchline" : 				{
					"destination" : [ "obj-180", 0 ],
					"disabled" : 0,
					"hidden" : 0,
					"source" : [ "obj-78", 0 ]
				}

			}
, 			{
				"patchline" : 				{
					"destination" : [ "obj-165", 0 ],
					"disabled" : 0,
					"hidden" : 0,
					"source" : [ "obj-8", 0 ]
				}

			}
, 			{
				"patchline" : 				{
					"destination" : [ "obj-164", 0 ],
					"disabled" : 0,
					"hidden" : 0,
					"source" : [ "obj-80", 0 ]
				}

			}
, 			{
				"patchline" : 				{
					"destination" : [ "obj-10", 0 ],
					"disabled" : 0,
					"hidden" : 0,
					"source" : [ "obj-9", 0 ]
				}

			}
 ],
		"parameters" : 		{
			"obj-71" : [ "patcher-window", "patcher-window", 0 ],
			"obj-65" : [ "close", "close", 0 ],
			"obj-78" : [ "tab", "tab", 0 ],
			"obj-80" : [ "settings", "settings", 0 ],
			"obj-8" : [ "storagewindow", "storagewindow", 0 ]
		}
,
		"dependency_cache" : [  ]
	}

}
